<mxfile host="app.diagrams.net" modified="2024-01-15T13:45:15.126Z" agent="Mozilla/5.0 (Macintosh; Intel Mac OS X 10_15_7) AppleWebKit/537.36 (KHTML, like Gecko) Chrome/120.0.0.0 Safari/537.36" etag="Xv3IhyqsLZDLhxRWbM4j" version="22.1.18" type="device">
  <diagram name="Side-1" id="3WtRLQ2df1MF-TyXNDJJ">
    <mxGraphModel dx="1195" dy="634" grid="1" gridSize="10" guides="1" tooltips="1" connect="1" arrows="1" fold="1" page="1" pageScale="1" pageWidth="3300" pageHeight="2339" math="0" shadow="0">
      <root>
        <mxCell id="0" />
        <mxCell id="1" parent="0" />
        <mxCell id="fQZC0R4J9lBJNPcKV3xF-4" style="edgeStyle=orthogonalEdgeStyle;rounded=0;orthogonalLoop=1;jettySize=auto;html=1;" edge="1" parent="1" source="fQZC0R4J9lBJNPcKV3xF-2">
          <mxGeometry relative="1" as="geometry">
            <mxPoint x="350" y="720" as="targetPoint" />
          </mxGeometry>
        </mxCell>
        <mxCell id="fQZC0R4J9lBJNPcKV3xF-2" value="&lt;font style=&quot;font-size: 25px;&quot;&gt;Trader&lt;/font&gt;" style="rounded=0;whiteSpace=wrap;html=1;" vertex="1" parent="1">
          <mxGeometry x="290" y="140" width="120" height="60" as="geometry" />
        </mxCell>
        <mxCell id="fQZC0R4J9lBJNPcKV3xF-3" value="&lt;font style=&quot;font-size: 25px;&quot;&gt;Lobby&lt;/font&gt;" style="rounded=0;whiteSpace=wrap;html=1;" vertex="1" parent="1">
          <mxGeometry x="710" y="140" width="120" height="60" as="geometry" />
        </mxCell>
        <mxCell id="fQZC0R4J9lBJNPcKV3xF-6" value="" style="endArrow=classic;html=1;rounded=0;fillColor=#f8cecc;strokeColor=#b85450;" edge="1" parent="1">
          <mxGeometry width="50" height="50" relative="1" as="geometry">
            <mxPoint x="350" y="240" as="sourcePoint" />
            <mxPoint x="770" y="280" as="targetPoint" />
          </mxGeometry>
        </mxCell>
        <mxCell id="fQZC0R4J9lBJNPcKV3xF-7" value="(traderId, &quot;create&quot;, roomName, password, capacity)" style="edgeLabel;html=1;align=center;verticalAlign=middle;resizable=0;points=[];" vertex="1" connectable="0" parent="fQZC0R4J9lBJNPcKV3xF-6">
          <mxGeometry x="-0.8047" relative="1" as="geometry">
            <mxPoint x="89" y="-24" as="offset" />
          </mxGeometry>
        </mxCell>
        <mxCell id="fQZC0R4J9lBJNPcKV3xF-8" value="req(String,&quot;create&quot;, String, String, Integer)" style="edgeLabel;html=1;align=center;verticalAlign=middle;resizable=0;points=[];" vertex="1" connectable="0" parent="fQZC0R4J9lBJNPcKV3xF-6">
          <mxGeometry x="0.7622" y="-1" relative="1" as="geometry">
            <mxPoint x="60" y="-26" as="offset" />
          </mxGeometry>
        </mxCell>
        <mxCell id="fQZC0R4J9lBJNPcKV3xF-16" value="&lt;font style=&quot;font-size: 20px;&quot;&gt;1&lt;/font&gt;" style="ellipse;whiteSpace=wrap;html=1;aspect=fixed;" vertex="1" parent="1">
          <mxGeometry x="570" y="250" width="20" height="20" as="geometry" />
        </mxCell>
        <mxCell id="fQZC0R4J9lBJNPcKV3xF-35" value="" style="edgeStyle=orthogonalEdgeStyle;rounded=0;orthogonalLoop=1;jettySize=auto;html=1;" edge="1" parent="1" source="fQZC0R4J9lBJNPcKV3xF-3" target="fQZC0R4J9lBJNPcKV3xF-34">
          <mxGeometry relative="1" as="geometry">
            <mxPoint x="770" y="720" as="targetPoint" />
            <mxPoint x="770" y="200" as="sourcePoint" />
          </mxGeometry>
        </mxCell>
        <mxCell id="fQZC0R4J9lBJNPcKV3xF-37" style="edgeStyle=orthogonalEdgeStyle;rounded=0;orthogonalLoop=1;jettySize=auto;html=1;" edge="1" parent="1" source="fQZC0R4J9lBJNPcKV3xF-34">
          <mxGeometry relative="1" as="geometry">
            <mxPoint x="630" y="430" as="targetPoint" />
          </mxGeometry>
        </mxCell>
        <mxCell id="fQZC0R4J9lBJNPcKV3xF-39" value="false" style="edgeLabel;html=1;align=center;verticalAlign=middle;resizable=0;points=[];" vertex="1" connectable="0" parent="fQZC0R4J9lBJNPcKV3xF-37">
          <mxGeometry x="-0.7942" y="-1" relative="1" as="geometry">
            <mxPoint x="256" y="-14" as="offset" />
          </mxGeometry>
        </mxCell>
        <mxCell id="fQZC0R4J9lBJNPcKV3xF-38" style="edgeStyle=orthogonalEdgeStyle;rounded=0;orthogonalLoop=1;jettySize=auto;html=1;" edge="1" parent="1" source="fQZC0R4J9lBJNPcKV3xF-34">
          <mxGeometry relative="1" as="geometry">
            <mxPoint x="910" y="720" as="targetPoint" />
          </mxGeometry>
        </mxCell>
        <mxCell id="fQZC0R4J9lBJNPcKV3xF-40" value="true" style="edgeLabel;html=1;align=center;verticalAlign=middle;resizable=0;points=[];" vertex="1" connectable="0" parent="fQZC0R4J9lBJNPcKV3xF-38">
          <mxGeometry x="-0.894" y="3" relative="1" as="geometry">
            <mxPoint x="-252" y="-12" as="offset" />
          </mxGeometry>
        </mxCell>
        <mxCell id="fQZC0R4J9lBJNPcKV3xF-34" value="checkRoomExists(roomName)" style="rhombus;whiteSpace=wrap;html=1;" vertex="1" parent="1">
          <mxGeometry x="657.5" y="300" width="225" height="50" as="geometry" />
        </mxCell>
        <mxCell id="fQZC0R4J9lBJNPcKV3xF-41" value="" style="endArrow=classic;html=1;rounded=0;fillColor=#dae8fc;strokeColor=#6c8ebf;" edge="1" parent="1">
          <mxGeometry width="50" height="50" relative="1" as="geometry">
            <mxPoint x="630" y="360" as="sourcePoint" />
            <mxPoint x="350" y="390" as="targetPoint" />
          </mxGeometry>
        </mxCell>
        <mxCell id="fQZC0R4J9lBJNPcKV3xF-43" value="(traderId, &quot;Failed&quot;)" style="edgeLabel;html=1;align=center;verticalAlign=middle;resizable=0;points=[];" vertex="1" connectable="0" parent="fQZC0R4J9lBJNPcKV3xF-41">
          <mxGeometry x="-0.2616" relative="1" as="geometry">
            <mxPoint x="54" y="-21" as="offset" />
          </mxGeometry>
        </mxCell>
        <mxCell id="fQZC0R4J9lBJNPcKV3xF-42" value="&lt;font style=&quot;font-size: 20px;&quot;&gt;2&lt;/font&gt;" style="ellipse;whiteSpace=wrap;html=1;aspect=fixed;" vertex="1" parent="1">
          <mxGeometry x="760" y="340" width="20" height="20" as="geometry" />
        </mxCell>
        <mxCell id="fQZC0R4J9lBJNPcKV3xF-46" value="" style="verticalLabelPosition=bottom;verticalAlign=top;html=1;shape=mxgraph.flowchart.or;" vertex="1" parent="1">
          <mxGeometry x="620" y="430" width="20" height="20" as="geometry" />
        </mxCell>
        <mxCell id="fQZC0R4J9lBJNPcKV3xF-47" value="" style="endArrow=classic;html=1;rounded=0;fillColor=#dae8fc;strokeColor=#6c8ebf;" edge="1" parent="1">
          <mxGeometry width="50" height="50" relative="1" as="geometry">
            <mxPoint x="910" y="460" as="sourcePoint" />
            <mxPoint x="350" y="550" as="targetPoint" />
          </mxGeometry>
        </mxCell>
        <mxCell id="fQZC0R4J9lBJNPcKV3xF-48" value="(traderId, &quot;Fulfilled&quot;)" style="edgeLabel;html=1;align=center;verticalAlign=middle;resizable=0;points=[];" vertex="1" connectable="0" parent="fQZC0R4J9lBJNPcKV3xF-47">
          <mxGeometry x="-0.5128" y="4" relative="1" as="geometry">
            <mxPoint x="86" y="-36" as="offset" />
          </mxGeometry>
        </mxCell>
        <mxCell id="fQZC0R4J9lBJNPcKV3xF-51" value="&lt;font style=&quot;font-size: 10px;&quot;&gt;addRoomAndAuthToken(traderId, roomName, capacity, password)&lt;/font&gt;" style="rounded=0;whiteSpace=wrap;html=1;" vertex="1" parent="1">
          <mxGeometry x="820" y="530" width="180" height="30" as="geometry" />
        </mxCell>
        <mxCell id="fQZC0R4J9lBJNPcKV3xF-58" value="" style="verticalLabelPosition=bottom;verticalAlign=top;html=1;shape=mxgraph.flowchart.or;" vertex="1" parent="1">
          <mxGeometry x="340" y="720" width="20" height="20" as="geometry" />
        </mxCell>
        <mxCell id="fQZC0R4J9lBJNPcKV3xF-59" value="" style="verticalLabelPosition=bottom;verticalAlign=top;html=1;shape=mxgraph.flowchart.or;" vertex="1" parent="1">
          <mxGeometry x="900" y="720" width="20" height="20" as="geometry" />
        </mxCell>
        <mxCell id="fQZC0R4J9lBJNPcKV3xF-63" value="&lt;font style=&quot;font-size: 20px;&quot;&gt;3&lt;/font&gt;" style="ellipse;whiteSpace=wrap;html=1;aspect=fixed;" vertex="1" parent="1">
          <mxGeometry x="450" y="370" width="20" height="20" as="geometry" />
        </mxCell>
        <mxCell id="fQZC0R4J9lBJNPcKV3xF-64" value="&lt;span style=&quot;font-size: 20px;&quot;&gt;4&lt;/span&gt;" style="ellipse;whiteSpace=wrap;html=1;aspect=fixed;" vertex="1" parent="1">
          <mxGeometry x="650" y="490" width="20" height="20" as="geometry" />
        </mxCell>
        <mxCell id="fQZC0R4J9lBJNPcKV3xF-65" value="&lt;span style=&quot;font-size: 20px;&quot;&gt;5&lt;/span&gt;" style="ellipse;whiteSpace=wrap;html=1;aspect=fixed;" vertex="1" parent="1">
          <mxGeometry x="990" y="535" width="20" height="20" as="geometry" />
        </mxCell>
      </root>
    </mxGraphModel>
  </diagram>
</mxfile>
